<?xml version="1.0" encoding="utf-8" standalone="no"?>
<!DOCTYPE svg PUBLIC "-//W3C//DTD SVG 1.1//EN"
  "http://www.w3.org/Graphics/SVG/1.1/DTD/svg11.dtd">
<!-- Created with matplotlib (https://matplotlib.org/) -->
<svg height="288pt" version="1.1" viewBox="0 0 1080 288" width="1080pt" xmlns="http://www.w3.org/2000/svg" xmlns:xlink="http://www.w3.org/1999/xlink">
 <defs>
  <style type="text/css">
*{stroke-linecap:butt;stroke-linejoin:round;}
  </style>
 </defs>
 <g id="figure_1">
  <g id="patch_1">
   <path d="M 0 288 
L 1080 288 
L 1080 0 
L 0 0 
z
" style="fill:#ffffff;"/>
  </g>
  <g id="axes_1">
   <g id="patch_2">
    <path d="M 135 252 
L 381.176471 252 
L 381.176471 34.56 
L 135 34.56 
z
" style="fill:#ffffff;"/>
   </g>
   <g id="matplotlib.axis_1">
    <g id="xtick_1">
     <g id="line2d_1">
      <path clip-path="url(#pf07b01a21c)" d="M 146.18984 252 
L 146.18984 34.56 
" style="fill:none;stroke:#b0b0b0;stroke-linecap:square;stroke-width:0.8;"/>
     </g>
     <g id="line2d_2">
      <defs>
       <path d="M 0 0 
L 0 3.5 
" id="mb16f482be2" style="stroke:#000000;stroke-width:0.8;"/>
      </defs>
      <g>
       <use style="stroke:#000000;stroke-width:0.8;" x="146.18984" xlink:href="#mb16f482be2" y="252"/>
      </g>
     </g>
     <g id="text_1">
      <!-- 0 -->
      <defs>
       <path d="M 31.78125 66.40625 
Q 24.171875 66.40625 20.328125 58.90625 
Q 16.5 51.421875 16.5 36.375 
Q 16.5 21.390625 20.328125 13.890625 
Q 24.171875 6.390625 31.78125 6.390625 
Q 39.453125 6.390625 43.28125 13.890625 
Q 47.125 21.390625 47.125 36.375 
Q 47.125 51.421875 43.28125 58.90625 
Q 39.453125 66.40625 31.78125 66.40625 
z
M 31.78125 74.21875 
Q 44.046875 74.21875 50.515625 64.515625 
Q 56.984375 54.828125 56.984375 36.375 
Q 56.984375 17.96875 50.515625 8.265625 
Q 44.046875 -1.421875 31.78125 -1.421875 
Q 19.53125 -1.421875 13.0625 8.265625 
Q 6.59375 17.96875 6.59375 36.375 
Q 6.59375 54.828125 13.0625 64.515625 
Q 19.53125 74.21875 31.78125 74.21875 
z
" id="DejaVuSans-48"/>
      </defs>
      <g transform="translate(143.00859 266.598437)scale(0.1 -0.1)">
       <use xlink:href="#DejaVuSans-48"/>
      </g>
     </g>
    </g>
    <g id="xtick_2">
     <g id="line2d_3">
      <path clip-path="url(#pf07b01a21c)" d="M 185.315153 252 
L 185.315153 34.56 
" style="fill:none;stroke:#b0b0b0;stroke-linecap:square;stroke-width:0.8;"/>
     </g>
     <g id="line2d_4">
      <g>
       <use style="stroke:#000000;stroke-width:0.8;" x="185.315153" xlink:href="#mb16f482be2" y="252"/>
      </g>
     </g>
     <g id="text_2">
      <!-- 50 -->
      <defs>
       <path d="M 10.796875 72.90625 
L 49.515625 72.90625 
L 49.515625 64.59375 
L 19.828125 64.59375 
L 19.828125 46.734375 
Q 21.96875 47.46875 24.109375 47.828125 
Q 26.265625 48.1875 28.421875 48.1875 
Q 40.625 48.1875 47.75 41.5 
Q 54.890625 34.8125 54.890625 23.390625 
Q 54.890625 11.625 47.5625 5.09375 
Q 40.234375 -1.421875 26.90625 -1.421875 
Q 22.3125 -1.421875 17.546875 -0.640625 
Q 12.796875 0.140625 7.71875 1.703125 
L 7.71875 11.625 
Q 12.109375 9.234375 16.796875 8.0625 
Q 21.484375 6.890625 26.703125 6.890625 
Q 35.15625 6.890625 40.078125 11.328125 
Q 45.015625 15.765625 45.015625 23.390625 
Q 45.015625 31 40.078125 35.4375 
Q 35.15625 39.890625 26.703125 39.890625 
Q 22.75 39.890625 18.8125 39.015625 
Q 14.890625 38.140625 10.796875 36.28125 
z
" id="DejaVuSans-53"/>
      </defs>
      <g transform="translate(178.952653 266.598437)scale(0.1 -0.1)">
       <use xlink:href="#DejaVuSans-53"/>
       <use x="63.623047" xlink:href="#DejaVuSans-48"/>
      </g>
     </g>
    </g>
    <g id="xtick_3">
     <g id="line2d_5">
      <path clip-path="url(#pf07b01a21c)" d="M 224.440466 252 
L 224.440466 34.56 
" style="fill:none;stroke:#b0b0b0;stroke-linecap:square;stroke-width:0.8;"/>
     </g>
     <g id="line2d_6">
      <g>
       <use style="stroke:#000000;stroke-width:0.8;" x="224.440466" xlink:href="#mb16f482be2" y="252"/>
      </g>
     </g>
     <g id="text_3">
      <!-- 100 -->
      <defs>
       <path d="M 12.40625 8.296875 
L 28.515625 8.296875 
L 28.515625 63.921875 
L 10.984375 60.40625 
L 10.984375 69.390625 
L 28.421875 72.90625 
L 38.28125 72.90625 
L 38.28125 8.296875 
L 54.390625 8.296875 
L 54.390625 0 
L 12.40625 0 
z
" id="DejaVuSans-49"/>
      </defs>
      <g transform="translate(214.896716 266.598437)scale(0.1 -0.1)">
       <use xlink:href="#DejaVuSans-49"/>
       <use x="63.623047" xlink:href="#DejaVuSans-48"/>
       <use x="127.246094" xlink:href="#DejaVuSans-48"/>
      </g>
     </g>
    </g>
    <g id="xtick_4">
     <g id="line2d_7">
      <path clip-path="url(#pf07b01a21c)" d="M 263.565779 252 
L 263.565779 34.56 
" style="fill:none;stroke:#b0b0b0;stroke-linecap:square;stroke-width:0.8;"/>
     </g>
     <g id="line2d_8">
      <g>
       <use style="stroke:#000000;stroke-width:0.8;" x="263.565779" xlink:href="#mb16f482be2" y="252"/>
      </g>
     </g>
     <g id="text_4">
      <!-- 150 -->
      <g transform="translate(254.022029 266.598437)scale(0.1 -0.1)">
       <use xlink:href="#DejaVuSans-49"/>
       <use x="63.623047" xlink:href="#DejaVuSans-53"/>
       <use x="127.246094" xlink:href="#DejaVuSans-48"/>
      </g>
     </g>
    </g>
    <g id="xtick_5">
     <g id="line2d_9">
      <path clip-path="url(#pf07b01a21c)" d="M 302.691092 252 
L 302.691092 34.56 
" style="fill:none;stroke:#b0b0b0;stroke-linecap:square;stroke-width:0.8;"/>
     </g>
     <g id="line2d_10">
      <g>
       <use style="stroke:#000000;stroke-width:0.8;" x="302.691092" xlink:href="#mb16f482be2" y="252"/>
      </g>
     </g>
     <g id="text_5">
      <!-- 200 -->
      <defs>
       <path d="M 19.1875 8.296875 
L 53.609375 8.296875 
L 53.609375 0 
L 7.328125 0 
L 7.328125 8.296875 
Q 12.9375 14.109375 22.625 23.890625 
Q 32.328125 33.6875 34.8125 36.53125 
Q 39.546875 41.84375 41.421875 45.53125 
Q 43.3125 49.21875 43.3125 52.78125 
Q 43.3125 58.59375 39.234375 62.25 
Q 35.15625 65.921875 28.609375 65.921875 
Q 23.96875 65.921875 18.8125 64.3125 
Q 13.671875 62.703125 7.8125 59.421875 
L 7.8125 69.390625 
Q 13.765625 71.78125 18.9375 73 
Q 24.125 74.21875 28.421875 74.21875 
Q 39.75 74.21875 46.484375 68.546875 
Q 53.21875 62.890625 53.21875 53.421875 
Q 53.21875 48.921875 51.53125 44.890625 
Q 49.859375 40.875 45.40625 35.40625 
Q 44.1875 33.984375 37.640625 27.21875 
Q 31.109375 20.453125 19.1875 8.296875 
z
" id="DejaVuSans-50"/>
      </defs>
      <g transform="translate(293.147342 266.598437)scale(0.1 -0.1)">
       <use xlink:href="#DejaVuSans-50"/>
       <use x="63.623047" xlink:href="#DejaVuSans-48"/>
       <use x="127.246094" xlink:href="#DejaVuSans-48"/>
      </g>
     </g>
    </g>
    <g id="xtick_6">
     <g id="line2d_11">
      <path clip-path="url(#pf07b01a21c)" d="M 341.816406 252 
L 341.816406 34.56 
" style="fill:none;stroke:#b0b0b0;stroke-linecap:square;stroke-width:0.8;"/>
     </g>
     <g id="line2d_12">
      <g>
       <use style="stroke:#000000;stroke-width:0.8;" x="341.816406" xlink:href="#mb16f482be2" y="252"/>
      </g>
     </g>
     <g id="text_6">
      <!-- 250 -->
      <g transform="translate(332.272656 266.598437)scale(0.1 -0.1)">
       <use xlink:href="#DejaVuSans-50"/>
       <use x="63.623047" xlink:href="#DejaVuSans-53"/>
       <use x="127.246094" xlink:href="#DejaVuSans-48"/>
      </g>
     </g>
    </g>
    <g id="xtick_7">
     <g id="line2d_13">
      <path clip-path="url(#pf07b01a21c)" d="M 380.941719 252 
L 380.941719 34.56 
" style="fill:none;stroke:#b0b0b0;stroke-linecap:square;stroke-width:0.8;"/>
     </g>
     <g id="line2d_14">
      <g>
       <use style="stroke:#000000;stroke-width:0.8;" x="380.941719" xlink:href="#mb16f482be2" y="252"/>
      </g>
     </g>
     <g id="text_7">
      <!-- 300 -->
      <defs>
       <path d="M 40.578125 39.3125 
Q 47.65625 37.796875 51.625 33 
Q 55.609375 28.21875 55.609375 21.1875 
Q 55.609375 10.40625 48.1875 4.484375 
Q 40.765625 -1.421875 27.09375 -1.421875 
Q 22.515625 -1.421875 17.65625 -0.515625 
Q 12.796875 0.390625 7.625 2.203125 
L 7.625 11.71875 
Q 11.71875 9.328125 16.59375 8.109375 
Q 21.484375 6.890625 26.8125 6.890625 
Q 36.078125 6.890625 40.9375 10.546875 
Q 45.796875 14.203125 45.796875 21.1875 
Q 45.796875 27.640625 41.28125 31.265625 
Q 36.765625 34.90625 28.71875 34.90625 
L 20.21875 34.90625 
L 20.21875 43.015625 
L 29.109375 43.015625 
Q 36.375 43.015625 40.234375 45.921875 
Q 44.09375 48.828125 44.09375 54.296875 
Q 44.09375 59.90625 40.109375 62.90625 
Q 36.140625 65.921875 28.71875 65.921875 
Q 24.65625 65.921875 20.015625 65.03125 
Q 15.375 64.15625 9.8125 62.3125 
L 9.8125 71.09375 
Q 15.4375 72.65625 20.34375 73.4375 
Q 25.25 74.21875 29.59375 74.21875 
Q 40.828125 74.21875 47.359375 69.109375 
Q 53.90625 64.015625 53.90625 55.328125 
Q 53.90625 49.265625 50.4375 45.09375 
Q 46.96875 40.921875 40.578125 39.3125 
z
" id="DejaVuSans-51"/>
      </defs>
      <g transform="translate(371.397969 266.598437)scale(0.1 -0.1)">
       <use xlink:href="#DejaVuSans-51"/>
       <use x="63.623047" xlink:href="#DejaVuSans-48"/>
       <use x="127.246094" xlink:href="#DejaVuSans-48"/>
      </g>
     </g>
    </g>
   </g>
   <g id="matplotlib.axis_2">
    <g id="ytick_1">
     <g id="line2d_15">
      <path clip-path="url(#pf07b01a21c)" d="M 135 242.116364 
L 381.176471 242.116364 
" style="fill:none;stroke:#b0b0b0;stroke-linecap:square;stroke-width:0.8;"/>
     </g>
     <g id="line2d_16">
      <defs>
       <path d="M 0 0 
L -3.5 0 
" id="m6051ccb856" style="stroke:#000000;stroke-width:0.8;"/>
      </defs>
      <g>
       <use style="stroke:#000000;stroke-width:0.8;" x="135" xlink:href="#m6051ccb856" y="242.116364"/>
      </g>
     </g>
     <g id="text_8">
      <!-- 0 -->
      <g transform="translate(121.6375 245.915582)scale(0.1 -0.1)">
       <use xlink:href="#DejaVuSans-48"/>
      </g>
     </g>
    </g>
    <g id="ytick_2">
     <g id="line2d_17">
      <path clip-path="url(#pf07b01a21c)" d="M 135 201.3591 
L 381.176471 201.3591 
" style="fill:none;stroke:#b0b0b0;stroke-linecap:square;stroke-width:0.8;"/>
     </g>
     <g id="line2d_18">
      <g>
       <use style="stroke:#000000;stroke-width:0.8;" x="135" xlink:href="#m6051ccb856" y="201.3591"/>
      </g>
     </g>
     <g id="text_9">
      <!-- 20 -->
      <g transform="translate(115.275 205.158319)scale(0.1 -0.1)">
       <use xlink:href="#DejaVuSans-50"/>
       <use x="63.623047" xlink:href="#DejaVuSans-48"/>
      </g>
     </g>
    </g>
    <g id="ytick_3">
     <g id="line2d_19">
      <path clip-path="url(#pf07b01a21c)" d="M 135 160.601837 
L 381.176471 160.601837 
" style="fill:none;stroke:#b0b0b0;stroke-linecap:square;stroke-width:0.8;"/>
     </g>
     <g id="line2d_20">
      <g>
       <use style="stroke:#000000;stroke-width:0.8;" x="135" xlink:href="#m6051ccb856" y="160.601837"/>
      </g>
     </g>
     <g id="text_10">
      <!-- 40 -->
      <defs>
       <path d="M 37.796875 64.3125 
L 12.890625 25.390625 
L 37.796875 25.390625 
z
M 35.203125 72.90625 
L 47.609375 72.90625 
L 47.609375 25.390625 
L 58.015625 25.390625 
L 58.015625 17.1875 
L 47.609375 17.1875 
L 47.609375 0 
L 37.796875 0 
L 37.796875 17.1875 
L 4.890625 17.1875 
L 4.890625 26.703125 
z
" id="DejaVuSans-52"/>
      </defs>
      <g transform="translate(115.275 164.401056)scale(0.1 -0.1)">
       <use xlink:href="#DejaVuSans-52"/>
       <use x="63.623047" xlink:href="#DejaVuSans-48"/>
      </g>
     </g>
    </g>
    <g id="ytick_4">
     <g id="line2d_21">
      <path clip-path="url(#pf07b01a21c)" d="M 135 119.844574 
L 381.176471 119.844574 
" style="fill:none;stroke:#b0b0b0;stroke-linecap:square;stroke-width:0.8;"/>
     </g>
     <g id="line2d_22">
      <g>
       <use style="stroke:#000000;stroke-width:0.8;" x="135" xlink:href="#m6051ccb856" y="119.844574"/>
      </g>
     </g>
     <g id="text_11">
      <!-- 60 -->
      <defs>
       <path d="M 33.015625 40.375 
Q 26.375 40.375 22.484375 35.828125 
Q 18.609375 31.296875 18.609375 23.390625 
Q 18.609375 15.53125 22.484375 10.953125 
Q 26.375 6.390625 33.015625 6.390625 
Q 39.65625 6.390625 43.53125 10.953125 
Q 47.40625 15.53125 47.40625 23.390625 
Q 47.40625 31.296875 43.53125 35.828125 
Q 39.65625 40.375 33.015625 40.375 
z
M 52.59375 71.296875 
L 52.59375 62.3125 
Q 48.875 64.0625 45.09375 64.984375 
Q 41.3125 65.921875 37.59375 65.921875 
Q 27.828125 65.921875 22.671875 59.328125 
Q 17.53125 52.734375 16.796875 39.40625 
Q 19.671875 43.65625 24.015625 45.921875 
Q 28.375 48.1875 33.59375 48.1875 
Q 44.578125 48.1875 50.953125 41.515625 
Q 57.328125 34.859375 57.328125 23.390625 
Q 57.328125 12.15625 50.6875 5.359375 
Q 44.046875 -1.421875 33.015625 -1.421875 
Q 20.359375 -1.421875 13.671875 8.265625 
Q 6.984375 17.96875 6.984375 36.375 
Q 6.984375 53.65625 15.1875 63.9375 
Q 23.390625 74.21875 37.203125 74.21875 
Q 40.921875 74.21875 44.703125 73.484375 
Q 48.484375 72.75 52.59375 71.296875 
z
" id="DejaVuSans-54"/>
      </defs>
      <g transform="translate(115.275 123.643792)scale(0.1 -0.1)">
       <use xlink:href="#DejaVuSans-54"/>
       <use x="63.623047" xlink:href="#DejaVuSans-48"/>
      </g>
     </g>
    </g>
    <g id="ytick_5">
     <g id="line2d_23">
      <path clip-path="url(#pf07b01a21c)" d="M 135 79.08731 
L 381.176471 79.08731 
" style="fill:none;stroke:#b0b0b0;stroke-linecap:square;stroke-width:0.8;"/>
     </g>
     <g id="line2d_24">
      <g>
       <use style="stroke:#000000;stroke-width:0.8;" x="135" xlink:href="#m6051ccb856" y="79.08731"/>
      </g>
     </g>
     <g id="text_12">
      <!-- 80 -->
      <defs>
       <path d="M 31.78125 34.625 
Q 24.75 34.625 20.71875 30.859375 
Q 16.703125 27.09375 16.703125 20.515625 
Q 16.703125 13.921875 20.71875 10.15625 
Q 24.75 6.390625 31.78125 6.390625 
Q 38.8125 6.390625 42.859375 10.171875 
Q 46.921875 13.96875 46.921875 20.515625 
Q 46.921875 27.09375 42.890625 30.859375 
Q 38.875 34.625 31.78125 34.625 
z
M 21.921875 38.8125 
Q 15.578125 40.375 12.03125 44.71875 
Q 8.5 49.078125 8.5 55.328125 
Q 8.5 64.0625 14.71875 69.140625 
Q 20.953125 74.21875 31.78125 74.21875 
Q 42.671875 74.21875 48.875 69.140625 
Q 55.078125 64.0625 55.078125 55.328125 
Q 55.078125 49.078125 51.53125 44.71875 
Q 48 40.375 41.703125 38.8125 
Q 48.828125 37.15625 52.796875 32.3125 
Q 56.78125 27.484375 56.78125 20.515625 
Q 56.78125 9.90625 50.3125 4.234375 
Q 43.84375 -1.421875 31.78125 -1.421875 
Q 19.734375 -1.421875 13.25 4.234375 
Q 6.78125 9.90625 6.78125 20.515625 
Q 6.78125 27.484375 10.78125 32.3125 
Q 14.796875 37.15625 21.921875 38.8125 
z
M 18.3125 54.390625 
Q 18.3125 48.734375 21.84375 45.5625 
Q 25.390625 42.390625 31.78125 42.390625 
Q 38.140625 42.390625 41.71875 45.5625 
Q 45.3125 48.734375 45.3125 54.390625 
Q 45.3125 60.0625 41.71875 63.234375 
Q 38.140625 66.40625 31.78125 66.40625 
Q 25.390625 66.40625 21.84375 63.234375 
Q 18.3125 60.0625 18.3125 54.390625 
z
" id="DejaVuSans-56"/>
      </defs>
      <g transform="translate(115.275 82.886529)scale(0.1 -0.1)">
       <use xlink:href="#DejaVuSans-56"/>
       <use x="63.623047" xlink:href="#DejaVuSans-48"/>
      </g>
     </g>
    </g>
    <g id="ytick_6">
     <g id="line2d_25">
      <path clip-path="url(#pf07b01a21c)" d="M 135 38.330047 
L 381.176471 38.330047 
" style="fill:none;stroke:#b0b0b0;stroke-linecap:square;stroke-width:0.8;"/>
     </g>
     <g id="line2d_26">
      <g>
       <use style="stroke:#000000;stroke-width:0.8;" x="135" xlink:href="#m6051ccb856" y="38.330047"/>
      </g>
     </g>
     <g id="text_13">
      <!-- 100 -->
      <g transform="translate(108.9125 42.129266)scale(0.1 -0.1)">
       <use xlink:href="#DejaVuSans-49"/>
       <use x="63.623047" xlink:href="#DejaVuSans-48"/>
       <use x="127.246094" xlink:href="#DejaVuSans-48"/>
      </g>
     </g>
    </g>
   </g>
   <g id="line2d_27">
    <path clip-path="url(#pf07b01a21c)" d="M 146.18984 75.011584 
L 146.972346 79.08731 
L 147.754852 89.276626 
L 148.537358 223.775595 
L 149.319865 60.746542 
L 150.102371 91.314489 
L 150.884877 168.75329 
L 151.667383 150.412521 
L 152.44989 199.321237 
L 153.232396 223.775595 
L 154.797408 132.071753 
L 155.579915 99.465942 
L 156.362421 107.617395 
L 157.144927 176.904742 
L 157.927434 123.9203 
L 158.70994 113.730984 
L 159.492446 83.163037 
L 160.274952 142.261068 
L 161.057459 168.75329 
L 161.839965 203.396963 
L 162.622471 132.071753 
L 163.404977 127.996026 
L 164.187484 95.390216 
L 164.96999 125.958163 
L 165.752496 75.011584 
L 166.535002 103.541668 
L 167.317509 172.829016 
L 168.100015 180.980469 
L 168.882521 130.033889 
L 169.665027 64.822268 
L 170.447534 156.526111 
L 171.23004 199.321237 
L 172.012546 203.396963 
L 172.795053 221.737732 
L 174.360065 103.541668 
L 175.142571 134.109616 
L 175.925078 87.238763 
L 176.707584 152.450384 
L 177.49009 93.352352 
L 178.272596 103.541668 
L 179.055103 168.75329 
L 179.837609 52.595089 
L 180.620115 66.860131 
L 181.402621 138.185342 
L 182.185128 142.261068 
L 182.967634 219.699869 
L 183.75014 203.396963 
L 184.532646 85.2009 
L 185.315153 81.125173 
L 186.097659 185.056195 
L 186.880165 136.147479 
L 187.662672 180.980469 
L 188.445178 125.958163 
L 189.227684 146.336795 
L 190.01019 187.094058 
L 190.792697 64.822268 
L 191.575203 203.396963 
L 192.357709 130.033889 
L 193.140215 164.677563 
L 193.922722 79.08731 
L 194.705228 150.412521 
L 195.487734 111.693121 
L 196.27024 105.579531 
L 197.052747 58.708679 
L 197.835253 56.670815 
L 198.617759 91.314489 
L 199.400266 193.207648 
L 200.182772 185.056195 
L 200.965278 174.866879 
L 201.747784 168.75329 
L 202.530291 77.049447 
L 203.312797 95.390216 
L 204.095303 79.08731 
L 204.877809 225.813458 
L 205.660316 180.980469 
L 206.442822 109.655258 
L 207.225328 160.601837 
L 208.007834 242.116364 
L 208.790341 203.396963 
L 209.572847 189.131921 
L 210.355353 166.715426 
L 211.137859 211.548416 
L 212.702872 195.245511 
L 213.485378 72.973721 
L 214.267885 223.775595 
L 215.050391 127.996026 
L 215.832897 164.677563 
L 216.615403 103.541668 
L 217.39791 115.768847 
L 218.180416 91.314489 
L 218.962922 185.056195 
L 219.745428 189.131921 
L 220.527935 185.056195 
L 221.310441 199.321237 
L 222.092947 174.866879 
L 222.875453 91.314489 
L 223.65796 185.056195 
L 224.440466 79.08731 
L 225.222972 68.897994 
L 226.005478 242.116364 
L 226.787985 44.443636 
L 227.570491 180.980469 
L 228.352997 223.775595 
L 229.135504 136.147479 
L 229.91801 199.321237 
L 230.700516 95.390216 
L 231.483022 87.238763 
L 232.265529 72.973721 
L 233.830541 81.125173 
L 234.613047 56.670815 
L 235.395554 136.147479 
L 236.17806 127.996026 
L 236.960566 152.450384 
L 237.743072 146.336795 
L 238.525579 164.677563 
L 239.308085 79.08731 
L 240.090591 201.3591 
L 240.873097 203.396963 
L 241.655604 117.80671 
L 242.43811 111.693121 
L 243.220616 109.655258 
L 244.003123 115.768847 
L 244.785629 56.670815 
L 245.568135 123.9203 
L 246.350641 203.396963 
L 247.133148 164.677563 
L 247.915654 166.715426 
L 248.69816 164.677563 
L 249.480666 203.396963 
L 250.263173 172.829016 
L 251.045679 117.80671 
L 251.828185 185.056195 
L 252.610691 81.125173 
L 253.393198 103.541668 
L 254.175704 91.314489 
L 254.95821 87.238763 
L 255.740717 168.75329 
L 256.523223 99.465942 
L 257.305729 154.488247 
L 258.088235 125.958163 
L 258.870742 162.6397 
L 259.653248 99.465942 
L 260.435754 111.693121 
L 261.21826 203.396963 
L 262.000767 66.860131 
L 262.783273 89.276626 
L 263.565779 164.677563 
L 264.348285 127.996026 
L 265.130792 223.775595 
L 266.695804 95.390216 
L 267.47831 191.169784 
L 268.260817 127.996026 
L 269.043323 95.390216 
L 269.825829 95.390216 
L 270.608336 168.75329 
L 271.390842 125.958163 
L 272.173348 111.693121 
L 272.955854 89.276626 
L 273.738361 109.655258 
L 274.520867 227.851321 
L 275.303373 203.396963 
L 276.085879 191.169784 
L 276.868386 95.390216 
L 277.650892 189.131921 
L 278.433398 70.935858 
L 279.215904 99.465942 
L 279.998411 242.116364 
L 280.780917 95.390216 
L 281.563423 83.163037 
L 282.345929 91.314489 
L 283.910942 199.321237 
L 284.693448 223.775595 
L 285.475955 148.374658 
L 286.258461 146.336795 
L 287.040967 75.011584 
L 287.823473 68.897994 
L 288.60598 103.541668 
L 289.388486 187.094058 
L 290.170992 111.693121 
L 290.953498 85.2009 
L 291.736005 146.336795 
L 292.518511 85.2009 
L 293.301017 170.791153 
L 294.083523 223.775595 
L 294.86603 203.396963 
L 295.648536 146.336795 
L 296.431042 242.116364 
L 297.213548 187.094058 
L 297.996055 154.488247 
L 298.778561 185.056195 
L 299.561067 81.125173 
L 300.343574 99.465942 
L 301.12608 107.617395 
L 301.908586 107.617395 
L 302.691092 223.775595 
L 303.473599 242.116364 
L 304.256105 152.450384 
L 305.038611 219.699869 
L 305.821117 164.677563 
L 306.603624 117.80671 
L 307.38613 109.655258 
L 308.168636 162.6397 
L 308.951142 146.336795 
L 309.733649 176.904742 
L 310.516155 146.336795 
L 311.298661 107.617395 
L 312.081167 223.775595 
L 312.863674 172.829016 
L 313.64618 189.131921 
L 314.428686 223.775595 
L 315.211193 219.699869 
L 315.993699 134.109616 
L 316.776205 91.314489 
L 317.558711 174.866879 
L 318.341218 111.693121 
L 319.123724 138.185342 
L 319.90623 77.049447 
L 320.688736 91.314489 
L 321.471243 136.147479 
L 322.253749 203.396963 
L 323.036255 223.775595 
L 323.818761 150.412521 
L 324.601268 172.829016 
L 325.383774 107.617395 
L 326.16628 207.47269 
L 326.948787 191.169784 
L 327.731293 205.434827 
L 328.513799 152.450384 
L 329.296305 238.040637 
L 330.078812 79.08731 
L 330.861318 117.80671 
L 331.643824 191.169784 
L 332.42633 85.2009 
L 333.208837 83.163037 
L 333.991343 223.775595 
L 334.773849 103.541668 
L 335.556355 103.541668 
L 336.338862 91.314489 
L 337.121368 185.056195 
L 337.903874 125.958163 
L 338.68638 164.677563 
L 339.468887 223.775595 
L 340.251393 242.116364 
L 341.033899 111.693121 
L 341.816406 125.958163 
L 342.598912 199.321237 
L 343.381418 203.396963 
L 344.163924 164.677563 
L 344.946431 91.314489 
L 345.728937 185.056195 
L 346.511443 95.390216 
L 347.293949 99.465942 
L 348.858962 115.768847 
L 349.641468 156.526111 
L 350.423974 115.768847 
L 351.206481 123.9203 
L 351.988987 229.889185 
L 352.771493 223.775595 
L 353.553999 142.261068 
L 354.336506 185.056195 
L 355.119012 160.601837 
L 355.901518 223.775595 
L 356.684025 146.336795 
L 357.466531 172.829016 
L 358.249037 132.071753 
L 359.031543 225.813458 
L 359.81405 107.617395 
L 360.596556 180.980469 
L 361.379062 168.75329 
L 362.161568 113.730984 
L 362.944075 180.980469 
L 363.726581 58.708679 
L 364.509087 158.563974 
L 365.291593 123.9203 
L 366.0741 103.541668 
L 366.856606 99.465942 
L 367.639112 180.980469 
L 368.421618 199.321237 
L 369.204125 242.116364 
L 369.986631 242.116364 
L 369.986631 242.116364 
" style="fill:none;stroke:#1f77b4;stroke-linecap:square;stroke-width:1.5;"/>
   </g>
   <g id="patch_3">
    <path d="M 135 252 
L 135 34.56 
" style="fill:none;stroke:#000000;stroke-linecap:square;stroke-linejoin:miter;stroke-width:0.8;"/>
   </g>
   <g id="patch_4">
    <path d="M 381.176471 252 
L 381.176471 34.56 
" style="fill:none;stroke:#000000;stroke-linecap:square;stroke-linejoin:miter;stroke-width:0.8;"/>
   </g>
   <g id="patch_5">
    <path d="M 135 252 
L 381.176471 252 
" style="fill:none;stroke:#000000;stroke-linecap:square;stroke-linejoin:miter;stroke-width:0.8;"/>
   </g>
   <g id="patch_6">
    <path d="M 135 34.56 
L 381.176471 34.56 
" style="fill:none;stroke:#000000;stroke-linecap:square;stroke-linejoin:miter;stroke-width:0.8;"/>
   </g>
   <g id="text_14">
    <!-- sm.1 -->
    <defs>
     <path d="M 44.28125 53.078125 
L 44.28125 44.578125 
Q 40.484375 46.53125 36.375 47.5 
Q 32.28125 48.484375 27.875 48.484375 
Q 21.1875 48.484375 17.84375 46.4375 
Q 14.5 44.390625 14.5 40.28125 
Q 14.5 37.15625 16.890625 35.375 
Q 19.28125 33.59375 26.515625 31.984375 
L 29.59375 31.296875 
Q 39.15625 29.25 43.1875 25.515625 
Q 47.21875 21.78125 47.21875 15.09375 
Q 47.21875 7.46875 41.1875 3.015625 
Q 35.15625 -1.421875 24.609375 -1.421875 
Q 20.21875 -1.421875 15.453125 -0.5625 
Q 10.6875 0.296875 5.421875 2 
L 5.421875 11.28125 
Q 10.40625 8.6875 15.234375 7.390625 
Q 20.0625 6.109375 24.8125 6.109375 
Q 31.15625 6.109375 34.5625 8.28125 
Q 37.984375 10.453125 37.984375 14.40625 
Q 37.984375 18.0625 35.515625 20.015625 
Q 33.0625 21.96875 24.703125 23.78125 
L 21.578125 24.515625 
Q 13.234375 26.265625 9.515625 29.90625 
Q 5.8125 33.546875 5.8125 39.890625 
Q 5.8125 47.609375 11.28125 51.796875 
Q 16.75 56 26.8125 56 
Q 31.78125 56 36.171875 55.265625 
Q 40.578125 54.546875 44.28125 53.078125 
z
" id="DejaVuSans-115"/>
     <path d="M 52 44.1875 
Q 55.375 50.25 60.0625 53.125 
Q 64.75 56 71.09375 56 
Q 79.640625 56 84.28125 50.015625 
Q 88.921875 44.046875 88.921875 33.015625 
L 88.921875 0 
L 79.890625 0 
L 79.890625 32.71875 
Q 79.890625 40.578125 77.09375 44.375 
Q 74.3125 48.1875 68.609375 48.1875 
Q 61.625 48.1875 57.5625 43.546875 
Q 53.515625 38.921875 53.515625 30.90625 
L 53.515625 0 
L 44.484375 0 
L 44.484375 32.71875 
Q 44.484375 40.625 41.703125 44.40625 
Q 38.921875 48.1875 33.109375 48.1875 
Q 26.21875 48.1875 22.15625 43.53125 
Q 18.109375 38.875 18.109375 30.90625 
L 18.109375 0 
L 9.078125 0 
L 9.078125 54.6875 
L 18.109375 54.6875 
L 18.109375 46.1875 
Q 21.1875 51.21875 25.484375 53.609375 
Q 29.78125 56 35.6875 56 
Q 41.65625 56 45.828125 52.96875 
Q 50 49.953125 52 44.1875 
z
" id="DejaVuSans-109"/>
     <path d="M 10.6875 12.40625 
L 21 12.40625 
L 21 0 
L 10.6875 0 
z
" id="DejaVuSans-46"/>
    </defs>
    <g transform="translate(243.39386 28.56)scale(0.12 -0.12)">
     <use xlink:href="#DejaVuSans-115"/>
     <use x="52.099609" xlink:href="#DejaVuSans-109"/>
     <use x="149.511719" xlink:href="#DejaVuSans-46"/>
     <use x="181.298828" xlink:href="#DejaVuSans-49"/>
    </g>
   </g>
  </g>
  <g id="axes_2">
   <g id="patch_7">
    <path d="M 430.411765 252 
L 676.588235 252 
L 676.588235 34.56 
L 430.411765 34.56 
z
" style="fill:#ffffff;"/>
   </g>
   <g id="matplotlib.axis_3">
    <g id="xtick_8">
     <g id="line2d_28">
      <path clip-path="url(#p1a98fa03b6)" d="M 441.601604 252 
L 441.601604 34.56 
" style="fill:none;stroke:#b0b0b0;stroke-linecap:square;stroke-width:0.8;"/>
     </g>
     <g id="line2d_29">
      <g>
       <use style="stroke:#000000;stroke-width:0.8;" x="441.601604" xlink:href="#mb16f482be2" y="252"/>
      </g>
     </g>
     <g id="text_15">
      <!-- 0 -->
      <g transform="translate(438.420354 266.598437)scale(0.1 -0.1)">
       <use xlink:href="#DejaVuSans-48"/>
      </g>
     </g>
    </g>
    <g id="xtick_9">
     <g id="line2d_30">
      <path clip-path="url(#p1a98fa03b6)" d="M 480.726917 252 
L 480.726917 34.56 
" style="fill:none;stroke:#b0b0b0;stroke-linecap:square;stroke-width:0.8;"/>
     </g>
     <g id="line2d_31">
      <g>
       <use style="stroke:#000000;stroke-width:0.8;" x="480.726917" xlink:href="#mb16f482be2" y="252"/>
      </g>
     </g>
     <g id="text_16">
      <!-- 50 -->
      <g transform="translate(474.364417 266.598437)scale(0.1 -0.1)">
       <use xlink:href="#DejaVuSans-53"/>
       <use x="63.623047" xlink:href="#DejaVuSans-48"/>
      </g>
     </g>
    </g>
    <g id="xtick_10">
     <g id="line2d_32">
      <path clip-path="url(#p1a98fa03b6)" d="M 519.852231 252 
L 519.852231 34.56 
" style="fill:none;stroke:#b0b0b0;stroke-linecap:square;stroke-width:0.8;"/>
     </g>
     <g id="line2d_33">
      <g>
       <use style="stroke:#000000;stroke-width:0.8;" x="519.852231" xlink:href="#mb16f482be2" y="252"/>
      </g>
     </g>
     <g id="text_17">
      <!-- 100 -->
      <g transform="translate(510.308481 266.598437)scale(0.1 -0.1)">
       <use xlink:href="#DejaVuSans-49"/>
       <use x="63.623047" xlink:href="#DejaVuSans-48"/>
       <use x="127.246094" xlink:href="#DejaVuSans-48"/>
      </g>
     </g>
    </g>
    <g id="xtick_11">
     <g id="line2d_34">
      <path clip-path="url(#p1a98fa03b6)" d="M 558.977544 252 
L 558.977544 34.56 
" style="fill:none;stroke:#b0b0b0;stroke-linecap:square;stroke-width:0.8;"/>
     </g>
     <g id="line2d_35">
      <g>
       <use style="stroke:#000000;stroke-width:0.8;" x="558.977544" xlink:href="#mb16f482be2" y="252"/>
      </g>
     </g>
     <g id="text_18">
      <!-- 150 -->
      <g transform="translate(549.433794 266.598437)scale(0.1 -0.1)">
       <use xlink:href="#DejaVuSans-49"/>
       <use x="63.623047" xlink:href="#DejaVuSans-53"/>
       <use x="127.246094" xlink:href="#DejaVuSans-48"/>
      </g>
     </g>
    </g>
    <g id="xtick_12">
     <g id="line2d_36">
      <path clip-path="url(#p1a98fa03b6)" d="M 598.102857 252 
L 598.102857 34.56 
" style="fill:none;stroke:#b0b0b0;stroke-linecap:square;stroke-width:0.8;"/>
     </g>
     <g id="line2d_37">
      <g>
       <use style="stroke:#000000;stroke-width:0.8;" x="598.102857" xlink:href="#mb16f482be2" y="252"/>
      </g>
     </g>
     <g id="text_19">
      <!-- 200 -->
      <g transform="translate(588.559107 266.598437)scale(0.1 -0.1)">
       <use xlink:href="#DejaVuSans-50"/>
       <use x="63.623047" xlink:href="#DejaVuSans-48"/>
       <use x="127.246094" xlink:href="#DejaVuSans-48"/>
      </g>
     </g>
    </g>
    <g id="xtick_13">
     <g id="line2d_38">
      <path clip-path="url(#p1a98fa03b6)" d="M 637.22817 252 
L 637.22817 34.56 
" style="fill:none;stroke:#b0b0b0;stroke-linecap:square;stroke-width:0.8;"/>
     </g>
     <g id="line2d_39">
      <g>
       <use style="stroke:#000000;stroke-width:0.8;" x="637.22817" xlink:href="#mb16f482be2" y="252"/>
      </g>
     </g>
     <g id="text_20">
      <!-- 250 -->
      <g transform="translate(627.68442 266.598437)scale(0.1 -0.1)">
       <use xlink:href="#DejaVuSans-50"/>
       <use x="63.623047" xlink:href="#DejaVuSans-53"/>
       <use x="127.246094" xlink:href="#DejaVuSans-48"/>
      </g>
     </g>
    </g>
    <g id="xtick_14">
     <g id="line2d_40">
      <path clip-path="url(#p1a98fa03b6)" d="M 676.353483 252 
L 676.353483 34.56 
" style="fill:none;stroke:#b0b0b0;stroke-linecap:square;stroke-width:0.8;"/>
     </g>
     <g id="line2d_41">
      <g>
       <use style="stroke:#000000;stroke-width:0.8;" x="676.353483" xlink:href="#mb16f482be2" y="252"/>
      </g>
     </g>
     <g id="text_21">
      <!-- 300 -->
      <g transform="translate(666.809733 266.598437)scale(0.1 -0.1)">
       <use xlink:href="#DejaVuSans-51"/>
       <use x="63.623047" xlink:href="#DejaVuSans-48"/>
       <use x="127.246094" xlink:href="#DejaVuSans-48"/>
      </g>
     </g>
    </g>
   </g>
   <g id="matplotlib.axis_4">
    <g id="ytick_7">
     <g id="line2d_42">
      <path clip-path="url(#p1a98fa03b6)" d="M 430.411765 248.705455 
L 676.588235 248.705455 
" style="fill:none;stroke:#b0b0b0;stroke-linecap:square;stroke-width:0.8;"/>
     </g>
     <g id="line2d_43">
      <g>
       <use style="stroke:#000000;stroke-width:0.8;" x="430.411765" xlink:href="#m6051ccb856" y="248.705455"/>
      </g>
     </g>
     <g id="text_22">
      <!-- 0 -->
      <g transform="translate(417.049265 252.504673)scale(0.1 -0.1)">
       <use xlink:href="#DejaVuSans-48"/>
      </g>
     </g>
    </g>
    <g id="ytick_8">
     <g id="line2d_44">
      <path clip-path="url(#p1a98fa03b6)" d="M 430.411765 215.76 
L 676.588235 215.76 
" style="fill:none;stroke:#b0b0b0;stroke-linecap:square;stroke-width:0.8;"/>
     </g>
     <g id="line2d_45">
      <g>
       <use style="stroke:#000000;stroke-width:0.8;" x="430.411765" xlink:href="#m6051ccb856" y="215.76"/>
      </g>
     </g>
     <g id="text_23">
      <!-- 10 -->
      <g transform="translate(410.686765 219.559219)scale(0.1 -0.1)">
       <use xlink:href="#DejaVuSans-49"/>
       <use x="63.623047" xlink:href="#DejaVuSans-48"/>
      </g>
     </g>
    </g>
    <g id="ytick_9">
     <g id="line2d_46">
      <path clip-path="url(#p1a98fa03b6)" d="M 430.411765 182.814545 
L 676.588235 182.814545 
" style="fill:none;stroke:#b0b0b0;stroke-linecap:square;stroke-width:0.8;"/>
     </g>
     <g id="line2d_47">
      <g>
       <use style="stroke:#000000;stroke-width:0.8;" x="430.411765" xlink:href="#m6051ccb856" y="182.814545"/>
      </g>
     </g>
     <g id="text_24">
      <!-- 20 -->
      <g transform="translate(410.686765 186.613764)scale(0.1 -0.1)">
       <use xlink:href="#DejaVuSans-50"/>
       <use x="63.623047" xlink:href="#DejaVuSans-48"/>
      </g>
     </g>
    </g>
    <g id="ytick_10">
     <g id="line2d_48">
      <path clip-path="url(#p1a98fa03b6)" d="M 430.411765 149.869091 
L 676.588235 149.869091 
" style="fill:none;stroke:#b0b0b0;stroke-linecap:square;stroke-width:0.8;"/>
     </g>
     <g id="line2d_49">
      <g>
       <use style="stroke:#000000;stroke-width:0.8;" x="430.411765" xlink:href="#m6051ccb856" y="149.869091"/>
      </g>
     </g>
     <g id="text_25">
      <!-- 30 -->
      <g transform="translate(410.686765 153.66831)scale(0.1 -0.1)">
       <use xlink:href="#DejaVuSans-51"/>
       <use x="63.623047" xlink:href="#DejaVuSans-48"/>
      </g>
     </g>
    </g>
    <g id="ytick_11">
     <g id="line2d_50">
      <path clip-path="url(#p1a98fa03b6)" d="M 430.411765 116.923636 
L 676.588235 116.923636 
" style="fill:none;stroke:#b0b0b0;stroke-linecap:square;stroke-width:0.8;"/>
     </g>
     <g id="line2d_51">
      <g>
       <use style="stroke:#000000;stroke-width:0.8;" x="430.411765" xlink:href="#m6051ccb856" y="116.923636"/>
      </g>
     </g>
     <g id="text_26">
      <!-- 40 -->
      <g transform="translate(410.686765 120.722855)scale(0.1 -0.1)">
       <use xlink:href="#DejaVuSans-52"/>
       <use x="63.623047" xlink:href="#DejaVuSans-48"/>
      </g>
     </g>
    </g>
    <g id="ytick_12">
     <g id="line2d_52">
      <path clip-path="url(#p1a98fa03b6)" d="M 430.411765 83.978182 
L 676.588235 83.978182 
" style="fill:none;stroke:#b0b0b0;stroke-linecap:square;stroke-width:0.8;"/>
     </g>
     <g id="line2d_53">
      <g>
       <use style="stroke:#000000;stroke-width:0.8;" x="430.411765" xlink:href="#m6051ccb856" y="83.978182"/>
      </g>
     </g>
     <g id="text_27">
      <!-- 50 -->
      <g transform="translate(410.686765 87.777401)scale(0.1 -0.1)">
       <use xlink:href="#DejaVuSans-53"/>
       <use x="63.623047" xlink:href="#DejaVuSans-48"/>
      </g>
     </g>
    </g>
    <g id="ytick_13">
     <g id="line2d_54">
      <path clip-path="url(#p1a98fa03b6)" d="M 430.411765 51.032727 
L 676.588235 51.032727 
" style="fill:none;stroke:#b0b0b0;stroke-linecap:square;stroke-width:0.8;"/>
     </g>
     <g id="line2d_55">
      <g>
       <use style="stroke:#000000;stroke-width:0.8;" x="430.411765" xlink:href="#m6051ccb856" y="51.032727"/>
      </g>
     </g>
     <g id="text_28">
      <!-- 60 -->
      <g transform="translate(410.686765 54.831946)scale(0.1 -0.1)">
       <use xlink:href="#DejaVuSans-54"/>
       <use x="63.623047" xlink:href="#DejaVuSans-48"/>
      </g>
     </g>
    </g>
   </g>
   <g id="line2d_56">
    <path clip-path="url(#p1a98fa03b6)" d="M 441.601604 186.109091 
L 442.384111 182.814545 
L 443.166617 212.465455 
L 443.949123 219.054545 
L 444.731629 205.876364 
L 445.514136 219.054545 
L 446.296642 189.403636 
L 447.079148 205.876364 
L 447.861654 182.814545 
L 448.644161 189.403636 
L 449.426667 225.643636 
L 450.209173 219.054545 
L 450.991679 219.054545 
L 451.774186 235.527273 
L 452.556692 212.465455 
L 453.339198 212.465455 
L 454.121704 186.109091 
L 454.904211 195.992727 
L 455.686717 126.807273 
L 456.469223 205.876364 
L 457.25173 205.876364 
L 458.034236 195.992727 
L 458.816742 199.287273 
L 460.381755 225.643636 
L 461.164261 225.643636 
L 461.946767 166.341818 
L 462.729273 176.225455 
L 463.51178 189.403636 
L 464.294286 199.287273 
L 465.076792 212.465455 
L 465.859298 212.465455 
L 466.641805 192.698182 
L 467.424311 228.938182 
L 468.206817 74.094545 
L 468.989324 225.643636 
L 469.77183 242.116364 
L 470.554336 186.109091 
L 471.336842 199.287273 
L 472.119349 235.527273 
L 472.901855 212.465455 
L 473.684361 192.698182 
L 474.466867 126.807273 
L 475.249374 199.287273 
L 476.03188 195.992727 
L 476.814386 199.287273 
L 477.596892 97.156364 
L 478.379399 205.876364 
L 479.161905 225.643636 
L 479.944411 192.698182 
L 480.726917 202.581818 
L 481.509424 146.574545 
L 482.29193 133.396364 
L 483.074436 182.814545 
L 483.856943 192.698182 
L 484.639449 176.225455 
L 485.421955 192.698182 
L 486.204461 182.814545 
L 486.986968 143.28 
L 487.769474 159.752727 
L 488.55198 182.814545 
L 489.334486 139.985455 
L 490.116993 176.225455 
L 490.899499 153.163636 
L 491.682005 143.28 
L 492.464511 205.876364 
L 493.247018 212.465455 
L 494.029524 192.698182 
L 494.81203 182.814545 
L 495.594536 163.047273 
L 496.377043 163.047273 
L 497.159549 176.225455 
L 497.942055 169.636364 
L 498.724562 143.28 
L 499.507068 192.698182 
L 500.289574 182.814545 
L 501.07208 136.690909 
L 501.854587 176.225455 
L 502.637093 163.047273 
L 503.419599 136.690909 
L 504.202105 80.683636 
L 504.984612 163.047273 
L 505.767118 90.567273 
L 506.549624 113.629091 
L 507.33213 103.745455 
L 508.114637 103.745455 
L 508.897143 136.690909 
L 509.679649 116.923636 
L 510.462155 156.458182 
L 511.244662 156.458182 
L 512.027168 192.698182 
L 512.809674 202.581818 
L 513.592181 57.621818 
L 514.374687 77.389091 
L 515.157193 169.636364 
L 515.939699 163.047273 
L 516.722206 93.861818 
L 517.504712 143.28 
L 518.287218 74.094545 
L 519.069724 90.567273 
L 519.852231 209.170909 
L 520.634737 70.8 
L 521.417243 215.76 
L 522.199749 139.985455 
L 522.982256 83.978182 
L 523.764762 103.745455 
L 524.547268 97.156364 
L 525.329775 77.389091 
L 526.112281 100.450909 
L 526.894787 87.272727 
L 527.677293 100.450909 
L 528.4598 179.52 
L 529.242306 156.458182 
L 530.024812 64.210909 
L 530.807318 159.752727 
L 531.589825 172.930909 
L 532.372331 87.272727 
L 533.154837 146.574545 
L 533.937343 166.341818 
L 534.71985 80.683636 
L 535.502356 136.690909 
L 536.284862 176.225455 
L 537.067368 120.218182 
L 537.849875 116.923636 
L 538.632381 169.636364 
L 539.414887 103.745455 
L 540.197394 87.272727 
L 540.9799 110.334545 
L 541.762406 54.327273 
L 542.544912 199.287273 
L 543.327419 103.745455 
L 544.109925 44.443636 
L 544.892431 192.698182 
L 545.674937 182.814545 
L 547.23995 107.04 
L 548.022456 143.28 
L 548.804962 136.690909 
L 549.587469 192.698182 
L 550.369975 120.218182 
L 551.152481 123.512727 
L 551.934987 186.109091 
L 552.717494 149.869091 
L 553.5 176.225455 
L 554.282506 133.396364 
L 555.065013 159.752727 
L 555.847519 195.992727 
L 556.630025 172.930909 
L 557.412531 163.047273 
L 558.195038 182.814545 
L 558.977544 156.458182 
L 559.76005 172.930909 
L 560.542556 169.636364 
L 561.325063 120.218182 
L 562.107569 189.403636 
L 562.890075 143.28 
L 563.672581 107.04 
L 564.455088 123.512727 
L 565.237594 133.396364 
L 566.0201 87.272727 
L 566.802606 116.923636 
L 567.585113 192.698182 
L 568.367619 169.636364 
L 569.150125 67.505455 
L 569.932632 60.916364 
L 570.715138 143.28 
L 571.497644 176.225455 
L 572.28015 176.225455 
L 573.062657 139.985455 
L 573.845163 110.334545 
L 574.627669 156.458182 
L 575.410175 60.916364 
L 576.192682 172.930909 
L 576.975188 93.861818 
L 577.757694 123.512727 
L 578.5402 126.807273 
L 579.322707 110.334545 
L 580.105213 100.450909 
L 580.887719 130.101818 
L 581.670225 153.163636 
L 582.452732 133.396364 
L 583.235238 133.396364 
L 584.017744 126.807273 
L 584.800251 60.916364 
L 585.582757 74.094545 
L 586.365263 90.567273 
L 587.147769 116.923636 
L 587.930276 136.690909 
L 589.495288 116.923636 
L 590.277794 83.978182 
L 591.060301 156.458182 
L 591.842807 192.698182 
L 592.625313 166.341818 
L 593.407819 130.101818 
L 594.190326 133.396364 
L 594.972832 123.512727 
L 595.755338 179.52 
L 596.537845 139.985455 
L 597.320351 133.396364 
L 598.102857 103.745455 
L 598.885363 166.341818 
L 599.66787 136.690909 
L 600.450376 166.341818 
L 601.232882 146.574545 
L 602.015388 169.636364 
L 602.797895 199.287273 
L 603.580401 107.04 
L 604.362907 126.807273 
L 605.145413 156.458182 
L 605.92792 156.458182 
L 606.710426 80.683636 
L 607.492932 103.745455 
L 608.275438 116.923636 
L 609.057945 136.690909 
L 609.840451 90.567273 
L 610.622957 133.396364 
L 611.405464 166.341818 
L 612.18797 179.52 
L 612.970476 80.683636 
L 613.752982 83.978182 
L 614.535489 195.992727 
L 615.317995 146.574545 
L 616.100501 179.52 
L 616.883007 103.745455 
L 617.665514 64.210909 
L 618.44802 116.923636 
L 619.230526 123.512727 
L 620.013032 186.109091 
L 620.795539 133.396364 
L 621.578045 133.396364 
L 622.360551 123.512727 
L 623.143057 186.109091 
L 623.925564 205.876364 
L 624.70807 166.341818 
L 625.490576 172.930909 
L 626.273083 143.28 
L 627.055589 146.574545 
L 627.838095 143.28 
L 628.620601 166.341818 
L 630.96812 146.574545 
L 631.750626 143.28 
L 633.315639 123.512727 
L 634.098145 123.512727 
L 634.880651 182.814545 
L 635.663158 195.992727 
L 636.445664 192.698182 
L 637.22817 166.341818 
L 638.010676 90.567273 
L 638.793183 199.287273 
L 639.575689 219.054545 
L 640.358195 219.054545 
L 641.140702 195.992727 
L 641.923208 212.465455 
L 642.705714 215.76 
L 645.053233 176.225455 
L 645.835739 202.581818 
L 646.618245 222.349091 
L 647.400752 195.992727 
L 648.183258 199.287273 
L 648.965764 225.643636 
L 649.74827 215.76 
L 650.530777 195.992727 
L 651.313283 215.76 
L 652.095789 212.465455 
L 652.878296 212.465455 
L 653.660802 116.923636 
L 654.443308 212.465455 
L 655.225814 195.992727 
L 656.008321 215.76 
L 656.790827 222.349091 
L 657.573333 232.232727 
L 658.355839 219.054545 
L 659.138346 123.512727 
L 659.920852 219.054545 
L 660.703358 225.643636 
L 661.485864 202.581818 
L 662.268371 235.527273 
L 663.050877 166.341818 
L 663.833383 166.341818 
L 664.615889 215.76 
L 665.398396 219.054545 
L 665.398396 219.054545 
" style="fill:none;stroke:#1f77b4;stroke-linecap:square;stroke-width:1.5;"/>
   </g>
   <g id="patch_8">
    <path d="M 430.411765 252 
L 430.411765 34.56 
" style="fill:none;stroke:#000000;stroke-linecap:square;stroke-linejoin:miter;stroke-width:0.8;"/>
   </g>
   <g id="patch_9">
    <path d="M 676.588235 252 
L 676.588235 34.56 
" style="fill:none;stroke:#000000;stroke-linecap:square;stroke-linejoin:miter;stroke-width:0.8;"/>
   </g>
   <g id="patch_10">
    <path d="M 430.411765 252 
L 676.588235 252 
" style="fill:none;stroke:#000000;stroke-linecap:square;stroke-linejoin:miter;stroke-width:0.8;"/>
   </g>
   <g id="patch_11">
    <path d="M 430.411765 34.56 
L 676.588235 34.56 
" style="fill:none;stroke:#000000;stroke-linecap:square;stroke-linejoin:miter;stroke-width:0.8;"/>
   </g>
   <g id="text_29">
    <!-- tr.1 -->
    <defs>
     <path d="M 18.3125 70.21875 
L 18.3125 54.6875 
L 36.8125 54.6875 
L 36.8125 47.703125 
L 18.3125 47.703125 
L 18.3125 18.015625 
Q 18.3125 11.328125 20.140625 9.421875 
Q 21.96875 7.515625 27.59375 7.515625 
L 36.8125 7.515625 
L 36.8125 0 
L 27.59375 0 
Q 17.1875 0 13.234375 3.875 
Q 9.28125 7.765625 9.28125 18.015625 
L 9.28125 47.703125 
L 2.6875 47.703125 
L 2.6875 54.6875 
L 9.28125 54.6875 
L 9.28125 70.21875 
z
" id="DejaVuSans-116"/>
     <path d="M 41.109375 46.296875 
Q 39.59375 47.171875 37.8125 47.578125 
Q 36.03125 48 33.890625 48 
Q 26.265625 48 22.1875 43.046875 
Q 18.109375 38.09375 18.109375 28.8125 
L 18.109375 0 
L 9.078125 0 
L 9.078125 54.6875 
L 18.109375 54.6875 
L 18.109375 46.1875 
Q 20.953125 51.171875 25.484375 53.578125 
Q 30.03125 56 36.53125 56 
Q 37.453125 56 38.578125 55.875 
Q 39.703125 55.765625 41.0625 55.515625 
z
" id="DejaVuSans-114"/>
    </defs>
    <g transform="translate(542.965312 28.56)scale(0.12 -0.12)">
     <use xlink:href="#DejaVuSans-116"/>
     <use x="39.208984" xlink:href="#DejaVuSans-114"/>
     <use x="80.181641" xlink:href="#DejaVuSans-46"/>
     <use x="111.96875" xlink:href="#DejaVuSans-49"/>
    </g>
   </g>
  </g>
  <g id="axes_3">
   <g id="patch_12">
    <path d="M 725.823529 252 
L 972 252 
L 972 34.56 
L 725.823529 34.56 
z
" style="fill:#ffffff;"/>
   </g>
   <g id="matplotlib.axis_5">
    <g id="xtick_15">
     <g id="line2d_57">
      <path clip-path="url(#pe27534d8a4)" d="M 737.013369 252 
L 737.013369 34.56 
" style="fill:none;stroke:#b0b0b0;stroke-linecap:square;stroke-width:0.8;"/>
     </g>
     <g id="line2d_58">
      <g>
       <use style="stroke:#000000;stroke-width:0.8;" x="737.013369" xlink:href="#mb16f482be2" y="252"/>
      </g>
     </g>
     <g id="text_30">
      <!-- 0 -->
      <g transform="translate(733.832119 266.598437)scale(0.1 -0.1)">
       <use xlink:href="#DejaVuSans-48"/>
      </g>
     </g>
    </g>
    <g id="xtick_16">
     <g id="line2d_59">
      <path clip-path="url(#pe27534d8a4)" d="M 776.138682 252 
L 776.138682 34.56 
" style="fill:none;stroke:#b0b0b0;stroke-linecap:square;stroke-width:0.8;"/>
     </g>
     <g id="line2d_60">
      <g>
       <use style="stroke:#000000;stroke-width:0.8;" x="776.138682" xlink:href="#mb16f482be2" y="252"/>
      </g>
     </g>
     <g id="text_31">
      <!-- 50 -->
      <g transform="translate(769.776182 266.598437)scale(0.1 -0.1)">
       <use xlink:href="#DejaVuSans-53"/>
       <use x="63.623047" xlink:href="#DejaVuSans-48"/>
      </g>
     </g>
    </g>
    <g id="xtick_17">
     <g id="line2d_61">
      <path clip-path="url(#pe27534d8a4)" d="M 815.263995 252 
L 815.263995 34.56 
" style="fill:none;stroke:#b0b0b0;stroke-linecap:square;stroke-width:0.8;"/>
     </g>
     <g id="line2d_62">
      <g>
       <use style="stroke:#000000;stroke-width:0.8;" x="815.263995" xlink:href="#mb16f482be2" y="252"/>
      </g>
     </g>
     <g id="text_32">
      <!-- 100 -->
      <g transform="translate(805.720245 266.598437)scale(0.1 -0.1)">
       <use xlink:href="#DejaVuSans-49"/>
       <use x="63.623047" xlink:href="#DejaVuSans-48"/>
       <use x="127.246094" xlink:href="#DejaVuSans-48"/>
      </g>
     </g>
    </g>
    <g id="xtick_18">
     <g id="line2d_63">
      <path clip-path="url(#pe27534d8a4)" d="M 854.389309 252 
L 854.389309 34.56 
" style="fill:none;stroke:#b0b0b0;stroke-linecap:square;stroke-width:0.8;"/>
     </g>
     <g id="line2d_64">
      <g>
       <use style="stroke:#000000;stroke-width:0.8;" x="854.389309" xlink:href="#mb16f482be2" y="252"/>
      </g>
     </g>
     <g id="text_33">
      <!-- 150 -->
      <g transform="translate(844.845559 266.598437)scale(0.1 -0.1)">
       <use xlink:href="#DejaVuSans-49"/>
       <use x="63.623047" xlink:href="#DejaVuSans-53"/>
       <use x="127.246094" xlink:href="#DejaVuSans-48"/>
      </g>
     </g>
    </g>
    <g id="xtick_19">
     <g id="line2d_65">
      <path clip-path="url(#pe27534d8a4)" d="M 893.514622 252 
L 893.514622 34.56 
" style="fill:none;stroke:#b0b0b0;stroke-linecap:square;stroke-width:0.8;"/>
     </g>
     <g id="line2d_66">
      <g>
       <use style="stroke:#000000;stroke-width:0.8;" x="893.514622" xlink:href="#mb16f482be2" y="252"/>
      </g>
     </g>
     <g id="text_34">
      <!-- 200 -->
      <g transform="translate(883.970872 266.598437)scale(0.1 -0.1)">
       <use xlink:href="#DejaVuSans-50"/>
       <use x="63.623047" xlink:href="#DejaVuSans-48"/>
       <use x="127.246094" xlink:href="#DejaVuSans-48"/>
      </g>
     </g>
    </g>
    <g id="xtick_20">
     <g id="line2d_67">
      <path clip-path="url(#pe27534d8a4)" d="M 932.639935 252 
L 932.639935 34.56 
" style="fill:none;stroke:#b0b0b0;stroke-linecap:square;stroke-width:0.8;"/>
     </g>
     <g id="line2d_68">
      <g>
       <use style="stroke:#000000;stroke-width:0.8;" x="932.639935" xlink:href="#mb16f482be2" y="252"/>
      </g>
     </g>
     <g id="text_35">
      <!-- 250 -->
      <g transform="translate(923.096185 266.598437)scale(0.1 -0.1)">
       <use xlink:href="#DejaVuSans-50"/>
       <use x="63.623047" xlink:href="#DejaVuSans-53"/>
       <use x="127.246094" xlink:href="#DejaVuSans-48"/>
      </g>
     </g>
    </g>
    <g id="xtick_21">
     <g id="line2d_69">
      <path clip-path="url(#pe27534d8a4)" d="M 971.765248 252 
L 971.765248 34.56 
" style="fill:none;stroke:#b0b0b0;stroke-linecap:square;stroke-width:0.8;"/>
     </g>
     <g id="line2d_70">
      <g>
       <use style="stroke:#000000;stroke-width:0.8;" x="971.765248" xlink:href="#mb16f482be2" y="252"/>
      </g>
     </g>
     <g id="text_36">
      <!-- 300 -->
      <g transform="translate(962.221498 266.598437)scale(0.1 -0.1)">
       <use xlink:href="#DejaVuSans-51"/>
       <use x="63.623047" xlink:href="#DejaVuSans-48"/>
       <use x="127.246094" xlink:href="#DejaVuSans-48"/>
      </g>
     </g>
    </g>
   </g>
   <g id="matplotlib.axis_6">
    <g id="ytick_14">
     <g id="line2d_71">
      <path clip-path="url(#pe27534d8a4)" d="M 725.823529 242.116364 
L 972 242.116364 
" style="fill:none;stroke:#b0b0b0;stroke-linecap:square;stroke-width:0.8;"/>
     </g>
     <g id="line2d_72">
      <g>
       <use style="stroke:#000000;stroke-width:0.8;" x="725.823529" xlink:href="#m6051ccb856" y="242.116364"/>
      </g>
     </g>
     <g id="text_37">
      <!-- 0.0 -->
      <g transform="translate(702.920404 245.915582)scale(0.1 -0.1)">
       <use xlink:href="#DejaVuSans-48"/>
       <use x="63.623047" xlink:href="#DejaVuSans-46"/>
       <use x="95.410156" xlink:href="#DejaVuSans-48"/>
      </g>
     </g>
    </g>
    <g id="ytick_15">
     <g id="line2d_73">
      <path clip-path="url(#pe27534d8a4)" d="M 725.823529 216.106794 
L 972 216.106794 
" style="fill:none;stroke:#b0b0b0;stroke-linecap:square;stroke-width:0.8;"/>
     </g>
     <g id="line2d_74">
      <g>
       <use style="stroke:#000000;stroke-width:0.8;" x="725.823529" xlink:href="#m6051ccb856" y="216.106794"/>
      </g>
     </g>
     <g id="text_38">
      <!-- 2.5 -->
      <g transform="translate(702.920404 219.906013)scale(0.1 -0.1)">
       <use xlink:href="#DejaVuSans-50"/>
       <use x="63.623047" xlink:href="#DejaVuSans-46"/>
       <use x="95.410156" xlink:href="#DejaVuSans-53"/>
      </g>
     </g>
    </g>
    <g id="ytick_16">
     <g id="line2d_75">
      <path clip-path="url(#pe27534d8a4)" d="M 725.823529 190.097225 
L 972 190.097225 
" style="fill:none;stroke:#b0b0b0;stroke-linecap:square;stroke-width:0.8;"/>
     </g>
     <g id="line2d_76">
      <g>
       <use style="stroke:#000000;stroke-width:0.8;" x="725.823529" xlink:href="#m6051ccb856" y="190.097225"/>
      </g>
     </g>
     <g id="text_39">
      <!-- 5.0 -->
      <g transform="translate(702.920404 193.896444)scale(0.1 -0.1)">
       <use xlink:href="#DejaVuSans-53"/>
       <use x="63.623047" xlink:href="#DejaVuSans-46"/>
       <use x="95.410156" xlink:href="#DejaVuSans-48"/>
      </g>
     </g>
    </g>
    <g id="ytick_17">
     <g id="line2d_77">
      <path clip-path="url(#pe27534d8a4)" d="M 725.823529 164.087656 
L 972 164.087656 
" style="fill:none;stroke:#b0b0b0;stroke-linecap:square;stroke-width:0.8;"/>
     </g>
     <g id="line2d_78">
      <g>
       <use style="stroke:#000000;stroke-width:0.8;" x="725.823529" xlink:href="#m6051ccb856" y="164.087656"/>
      </g>
     </g>
     <g id="text_40">
      <!-- 7.5 -->
      <defs>
       <path d="M 8.203125 72.90625 
L 55.078125 72.90625 
L 55.078125 68.703125 
L 28.609375 0 
L 18.3125 0 
L 43.21875 64.59375 
L 8.203125 64.59375 
z
" id="DejaVuSans-55"/>
      </defs>
      <g transform="translate(702.920404 167.886874)scale(0.1 -0.1)">
       <use xlink:href="#DejaVuSans-55"/>
       <use x="63.623047" xlink:href="#DejaVuSans-46"/>
       <use x="95.410156" xlink:href="#DejaVuSans-53"/>
      </g>
     </g>
    </g>
    <g id="ytick_18">
     <g id="line2d_79">
      <path clip-path="url(#pe27534d8a4)" d="M 725.823529 138.078086 
L 972 138.078086 
" style="fill:none;stroke:#b0b0b0;stroke-linecap:square;stroke-width:0.8;"/>
     </g>
     <g id="line2d_80">
      <g>
       <use style="stroke:#000000;stroke-width:0.8;" x="725.823529" xlink:href="#m6051ccb856" y="138.078086"/>
      </g>
     </g>
     <g id="text_41">
      <!-- 10.0 -->
      <g transform="translate(696.557904 141.877305)scale(0.1 -0.1)">
       <use xlink:href="#DejaVuSans-49"/>
       <use x="63.623047" xlink:href="#DejaVuSans-48"/>
       <use x="127.246094" xlink:href="#DejaVuSans-46"/>
       <use x="159.033203" xlink:href="#DejaVuSans-48"/>
      </g>
     </g>
    </g>
    <g id="ytick_19">
     <g id="line2d_81">
      <path clip-path="url(#pe27534d8a4)" d="M 725.823529 112.068517 
L 972 112.068517 
" style="fill:none;stroke:#b0b0b0;stroke-linecap:square;stroke-width:0.8;"/>
     </g>
     <g id="line2d_82">
      <g>
       <use style="stroke:#000000;stroke-width:0.8;" x="725.823529" xlink:href="#m6051ccb856" y="112.068517"/>
      </g>
     </g>
     <g id="text_42">
      <!-- 12.5 -->
      <g transform="translate(696.557904 115.867735)scale(0.1 -0.1)">
       <use xlink:href="#DejaVuSans-49"/>
       <use x="63.623047" xlink:href="#DejaVuSans-50"/>
       <use x="127.246094" xlink:href="#DejaVuSans-46"/>
       <use x="159.033203" xlink:href="#DejaVuSans-53"/>
      </g>
     </g>
    </g>
    <g id="ytick_20">
     <g id="line2d_83">
      <path clip-path="url(#pe27534d8a4)" d="M 725.823529 86.058947 
L 972 86.058947 
" style="fill:none;stroke:#b0b0b0;stroke-linecap:square;stroke-width:0.8;"/>
     </g>
     <g id="line2d_84">
      <g>
       <use style="stroke:#000000;stroke-width:0.8;" x="725.823529" xlink:href="#m6051ccb856" y="86.058947"/>
      </g>
     </g>
     <g id="text_43">
      <!-- 15.0 -->
      <g transform="translate(696.557904 89.858166)scale(0.1 -0.1)">
       <use xlink:href="#DejaVuSans-49"/>
       <use x="63.623047" xlink:href="#DejaVuSans-53"/>
       <use x="127.246094" xlink:href="#DejaVuSans-46"/>
       <use x="159.033203" xlink:href="#DejaVuSans-48"/>
      </g>
     </g>
    </g>
    <g id="ytick_21">
     <g id="line2d_85">
      <path clip-path="url(#pe27534d8a4)" d="M 725.823529 60.049378 
L 972 60.049378 
" style="fill:none;stroke:#b0b0b0;stroke-linecap:square;stroke-width:0.8;"/>
     </g>
     <g id="line2d_86">
      <g>
       <use style="stroke:#000000;stroke-width:0.8;" x="725.823529" xlink:href="#m6051ccb856" y="60.049378"/>
      </g>
     </g>
     <g id="text_44">
      <!-- 17.5 -->
      <g transform="translate(696.557904 63.848597)scale(0.1 -0.1)">
       <use xlink:href="#DejaVuSans-49"/>
       <use x="63.623047" xlink:href="#DejaVuSans-55"/>
       <use x="127.246094" xlink:href="#DejaVuSans-46"/>
       <use x="159.033203" xlink:href="#DejaVuSans-53"/>
      </g>
     </g>
    </g>
   </g>
   <g id="line2d_87">
    <path clip-path="url(#pe27534d8a4)" d="M 737.013369 242.116364 
L 737.795875 221.308708 
L 738.578382 242.116364 
L 740.143394 242.116364 
L 740.9259 221.308708 
L 744.055925 221.308708 
L 744.838432 242.116364 
L 745.620938 242.116364 
L 746.403444 221.308708 
L 747.18595 221.308708 
L 747.968457 242.116364 
L 748.750963 221.308708 
L 749.533469 242.116364 
L 750.315975 221.308708 
L 751.098482 242.116364 
L 751.880988 221.308708 
L 752.663494 242.116364 
L 753.446001 242.116364 
L 754.228507 221.308708 
L 755.011013 242.116364 
L 755.793519 242.116364 
L 756.576026 221.308708 
L 757.358532 242.116364 
L 759.706051 242.116364 
L 760.488557 221.308708 
L 761.271063 242.116364 
L 762.053569 221.308708 
L 762.836076 242.116364 
L 763.618582 242.116364 
L 764.401088 221.308708 
L 766.748607 221.308708 
L 767.531113 242.116364 
L 768.31362 221.308708 
L 769.096126 242.116364 
L 769.878632 221.308708 
L 770.661138 242.116364 
L 771.443645 242.116364 
L 772.226151 221.308708 
L 773.008657 221.308708 
L 773.791163 242.116364 
L 774.57367 242.116364 
L 775.356176 221.308708 
L 776.138682 242.116364 
L 776.921188 221.308708 
L 777.703695 242.116364 
L 779.268707 242.116364 
L 780.051213 221.308708 
L 780.83372 221.308708 
L 781.616226 242.116364 
L 783.963745 242.116364 
L 784.746251 221.308708 
L 785.528757 242.116364 
L 787.876276 242.116364 
L 788.658782 221.308708 
L 789.441289 242.116364 
L 791.006301 242.116364 
L 791.788807 221.308708 
L 792.571314 221.308708 
L 793.35382 242.116364 
L 794.136326 221.308708 
L 794.918833 242.116364 
L 795.701339 242.116364 
L 796.483845 221.308708 
L 798.048858 221.308708 
L 798.831364 242.116364 
L 799.61387 221.308708 
L 800.396376 242.116364 
L 801.178883 242.116364 
L 801.961389 221.308708 
L 802.743895 221.308708 
L 803.526401 242.116364 
L 804.308908 242.116364 
L 805.091414 221.308708 
L 805.87392 242.116364 
L 809.786452 242.116364 
L 811.351464 200.501053 
L 812.13397 221.308708 
L 812.916477 221.308708 
L 813.698983 242.116364 
L 814.481489 221.308708 
L 815.263995 242.116364 
L 816.046502 221.308708 
L 816.829008 169.289569 
L 817.611514 138.078086 
L 818.39402 65.251292 
L 819.176527 127.674258 
L 819.959033 117.270431 
L 820.741539 127.674258 
L 821.524045 179.693397 
L 822.306552 169.289569 
L 823.089058 138.078086 
L 823.871564 138.078086 
L 824.654071 179.693397 
L 825.436577 169.289569 
L 826.219083 200.501053 
L 827.001589 148.481914 
L 827.784096 242.116364 
L 828.566602 148.481914 
L 829.349108 138.078086 
L 830.131614 242.116364 
L 830.914121 200.501053 
L 831.696627 148.481914 
L 832.479133 158.885742 
L 833.261639 44.443636 
L 834.044146 179.693397 
L 834.826652 127.674258 
L 835.609158 138.078086 
L 837.174171 179.693397 
L 837.956677 106.866603 
L 838.739183 127.674258 
L 839.52169 200.501053 
L 840.304196 138.078086 
L 841.086702 86.058947 
L 841.869208 221.308708 
L 842.651715 127.674258 
L 843.434221 190.097225 
L 844.216727 242.116364 
L 844.999233 200.501053 
L 846.564246 242.116364 
L 847.346752 242.116364 
L 848.129258 221.308708 
L 848.911765 242.116364 
L 849.694271 127.674258 
L 850.476777 138.078086 
L 851.259283 242.116364 
L 852.04179 242.116364 
L 852.824296 221.308708 
L 853.606802 242.116364 
L 856.736827 242.116364 
L 857.519334 221.308708 
L 858.30184 242.116364 
L 860.649359 242.116364 
L 861.431865 221.308708 
L 862.214371 242.116364 
L 862.996877 221.308708 
L 863.779384 242.116364 
L 864.56189 221.308708 
L 865.344396 242.116364 
L 866.909409 242.116364 
L 867.691915 221.308708 
L 868.474421 242.116364 
L 870.82194 242.116364 
L 871.604446 221.308708 
L 872.386953 242.116364 
L 873.169459 242.116364 
L 873.951965 221.308708 
L 874.734471 242.116364 
L 875.516978 221.308708 
L 876.299484 242.116364 
L 877.08199 221.308708 
L 877.864496 242.116364 
L 880.212015 242.116364 
L 880.994522 221.308708 
L 882.559534 221.308708 
L 883.34204 96.462775 
L 884.124547 190.097225 
L 884.907053 242.116364 
L 885.689559 221.308708 
L 887.254572 221.308708 
L 888.037078 190.097225 
L 888.819584 242.116364 
L 891.949609 242.116364 
L 892.732115 200.501053 
L 893.514622 106.866603 
L 894.297128 200.501053 
L 895.079634 179.693397 
L 896.644647 221.308708 
L 897.427153 210.90488 
L 898.209659 106.866603 
L 898.992166 200.501053 
L 899.774672 200.501053 
L 900.557178 127.674258 
L 901.339684 179.693397 
L 902.122191 210.90488 
L 902.904697 200.501053 
L 903.687203 242.116364 
L 904.469709 169.289569 
L 905.252216 179.693397 
L 906.817228 179.693397 
L 907.599734 242.116364 
L 908.382241 190.097225 
L 909.164747 221.308708 
L 909.947253 106.866603 
L 910.72976 221.308708 
L 911.512266 242.116364 
L 912.294772 242.116364 
L 913.077278 221.308708 
L 913.859785 242.116364 
L 915.424797 242.116364 
L 916.207303 221.308708 
L 916.98981 242.116364 
L 917.772316 242.116364 
L 918.554822 221.308708 
L 919.337328 221.308708 
L 920.119835 242.116364 
L 920.902341 242.116364 
L 921.684847 221.308708 
L 922.467354 242.116364 
L 923.24986 242.116364 
L 924.032366 221.308708 
L 931.074922 221.308708 
L 931.857429 242.116364 
L 932.639935 242.116364 
L 933.422441 221.308708 
L 934.987454 221.308708 
L 935.76996 242.116364 
L 939.682491 242.116364 
L 940.464998 221.308708 
L 941.247504 242.116364 
L 942.03001 242.116364 
L 942.812516 221.308708 
L 943.595023 221.308708 
L 944.377529 242.116364 
L 945.160035 221.308708 
L 945.942541 242.116364 
L 946.725048 242.116364 
L 947.507554 221.308708 
L 948.29006 242.116364 
L 949.072566 221.308708 
L 949.855073 221.308708 
L 950.637579 242.116364 
L 951.420085 242.116364 
L 952.202592 221.308708 
L 952.985098 242.116364 
L 953.767604 242.116364 
L 954.55011 221.308708 
L 955.332617 242.116364 
L 956.115123 221.308708 
L 959.245148 221.308708 
L 960.027654 242.116364 
L 960.81016 242.116364 
L 960.81016 242.116364 
" style="fill:none;stroke:#1f77b4;stroke-linecap:square;stroke-width:1.5;"/>
   </g>
   <g id="patch_13">
    <path d="M 725.823529 252 
L 725.823529 34.56 
" style="fill:none;stroke:#000000;stroke-linecap:square;stroke-linejoin:miter;stroke-width:0.8;"/>
   </g>
   <g id="patch_14">
    <path d="M 972 252 
L 972 34.56 
" style="fill:none;stroke:#000000;stroke-linecap:square;stroke-linejoin:miter;stroke-width:0.8;"/>
   </g>
   <g id="patch_15">
    <path d="M 725.823529 252 
L 972 252 
" style="fill:none;stroke:#000000;stroke-linecap:square;stroke-linejoin:miter;stroke-width:0.8;"/>
   </g>
   <g id="patch_16">
    <path d="M 725.823529 34.56 
L 972 34.56 
" style="fill:none;stroke:#000000;stroke-linecap:square;stroke-linejoin:miter;stroke-width:0.8;"/>
   </g>
   <g id="text_45">
    <!-- pe.1 -->
    <defs>
     <path d="M 18.109375 8.203125 
L 18.109375 -20.796875 
L 9.078125 -20.796875 
L 9.078125 54.6875 
L 18.109375 54.6875 
L 18.109375 46.390625 
Q 20.953125 51.265625 25.265625 53.625 
Q 29.59375 56 35.59375 56 
Q 45.5625 56 51.78125 48.09375 
Q 58.015625 40.1875 58.015625 27.296875 
Q 58.015625 14.40625 51.78125 6.484375 
Q 45.5625 -1.421875 35.59375 -1.421875 
Q 29.59375 -1.421875 25.265625 0.953125 
Q 20.953125 3.328125 18.109375 8.203125 
z
M 48.6875 27.296875 
Q 48.6875 37.203125 44.609375 42.84375 
Q 40.53125 48.484375 33.40625 48.484375 
Q 26.265625 48.484375 22.1875 42.84375 
Q 18.109375 37.203125 18.109375 27.296875 
Q 18.109375 17.390625 22.1875 11.75 
Q 26.265625 6.109375 33.40625 6.109375 
Q 40.53125 6.109375 44.609375 11.75 
Q 48.6875 17.390625 48.6875 27.296875 
z
" id="DejaVuSans-112"/>
     <path d="M 56.203125 29.59375 
L 56.203125 25.203125 
L 14.890625 25.203125 
Q 15.484375 15.921875 20.484375 11.0625 
Q 25.484375 6.203125 34.421875 6.203125 
Q 39.59375 6.203125 44.453125 7.46875 
Q 49.3125 8.734375 54.109375 11.28125 
L 54.109375 2.78125 
Q 49.265625 0.734375 44.1875 -0.34375 
Q 39.109375 -1.421875 33.890625 -1.421875 
Q 20.796875 -1.421875 13.15625 6.1875 
Q 5.515625 13.8125 5.515625 26.8125 
Q 5.515625 40.234375 12.765625 48.109375 
Q 20.015625 56 32.328125 56 
Q 43.359375 56 49.78125 48.890625 
Q 56.203125 41.796875 56.203125 29.59375 
z
M 47.21875 32.234375 
Q 47.125 39.59375 43.09375 43.984375 
Q 39.0625 48.390625 32.421875 48.390625 
Q 24.90625 48.390625 20.390625 44.140625 
Q 15.875 39.890625 15.1875 32.171875 
z
" id="DejaVuSans-101"/>
    </defs>
    <g transform="translate(835.686452 28.56)scale(0.12 -0.12)">
     <use xlink:href="#DejaVuSans-112"/>
     <use x="63.476562" xlink:href="#DejaVuSans-101"/>
     <use x="125" xlink:href="#DejaVuSans-46"/>
     <use x="156.787109" xlink:href="#DejaVuSans-49"/>
    </g>
   </g>
  </g>
 </g>
 <defs>
  <clipPath id="pf07b01a21c">
   <rect height="217.44" width="246.176471" x="135" y="34.56"/>
  </clipPath>
  <clipPath id="p1a98fa03b6">
   <rect height="217.44" width="246.176471" x="430.411765" y="34.56"/>
  </clipPath>
  <clipPath id="pe27534d8a4">
   <rect height="217.44" width="246.176471" x="725.823529" y="34.56"/>
  </clipPath>
 </defs>
</svg>
